<svg xmlns="http://www.w3.org/2000/svg"><symbol fill="none" id="icon-arrow-down" viewBox="0 0 20 20"><title>icon-arrow-down</title><path fill-rule="evenodd" clip-rule="evenodd" d="M4.41 6.91a.834.834 0 0 1 1.1-.069l.08.07L10 11.32l4.41-4.41a.834.834 0 0 1 1.1-.07l.08.07c.3.3.323.773.068 1.1l-.069.078-5 5c-.3.3-.773.324-1.1.07l-.078-.07-5-5a.833.833 0 0 1 0-1.178Z" fill="#9CA3AF"/></symbol><symbol fill="none" id="icon-arrow" viewBox="0 0 32 33"><title>icon-arrow</title><path fill-rule="evenodd" clip-rule="evenodd" d="M19.057 7.457a1.333 1.333 0 0 1 1.997 1.76l-.111.126-7.057 7.057 7.057 7.057c.48.48.517 1.237.11 1.76l-.11.126a1.334 1.334 0 0 1-1.76.11l-.126-.11-8-8a1.334 1.334 0 0 1-.11-1.76l.11-.126 8-8Z" fill="#131313"/></symbol><symbol fill="none" id="icon-circle-check-dark" viewBox="0 0 48 48"><title>icon-circle-check-dark</title><path d="m20.46 34.92 16.98-16.98-2.76-2.7-14.22 14.22-7.2-7.2-2.7 2.7 9.9 9.96ZM24 48c-3.28 0-6.38-.63-9.3-1.89-2.92-1.26-5.47-2.98-7.65-5.16-2.18-2.18-3.9-4.73-5.16-7.65C.63 30.38 0 27.28 0 24c0-3.32.63-6.44 1.89-9.36 1.26-2.92 2.98-5.46 5.16-7.62s4.73-3.87 7.65-5.13C17.62.63 20.72 0 24 0c3.32 0 6.44.63 9.36 1.89 2.92 1.26 5.46 2.97 7.62 5.13 2.16 2.16 3.87 4.7 5.13 7.62C47.37 17.56 48 20.68 48 24c0 3.28-.63 6.38-1.89 9.3-1.26 2.92-2.97 5.47-5.13 7.65-2.16 2.18-4.7 3.9-7.62 5.16C30.44 47.37 27.32 48 24 48Z" fill="#0A0A0A"/></symbol><symbol fill="none" id="icon-circle-check-light" viewBox="0 0 48 48"><title>icon-circle-check-light</title><path d="m20.46 34.92 16.98-16.98-2.76-2.7-14.22 14.22-7.2-7.2-2.7 2.7 9.9 9.96ZM24 48c-3.28 0-6.38-.63-9.3-1.89-2.92-1.26-5.47-2.98-7.65-5.16-2.18-2.18-3.9-4.73-5.16-7.65C.63 30.38 0 27.28 0 24c0-3.32.63-6.44 1.89-9.36 1.26-2.92 2.98-5.46 5.16-7.62s4.73-3.87 7.65-5.13C17.62.63 20.72 0 24 0c3.32 0 6.44.63 9.36 1.89 2.92 1.26 5.46 2.97 7.62 5.13 2.16 2.16 3.87 4.7 5.13 7.62C47.37 17.56 48 20.68 48 24c0 3.28-.63 6.38-1.89 9.3-1.26 2.92-2.97 5.47-5.13 7.65-2.16 2.18-4.7 3.9-7.62 5.16C30.44 47.37 27.32 48 24 48Z" fill="#fff"/></symbol><symbol fill="none" id="icon-circle-right" viewBox="0 0 24 24"><title>icon-circle-right</title><path fill-rule="evenodd" clip-rule="evenodd" d="M12 4a8 8 0 1 0 0 16 8 8 0 0 0 0-16ZM2 12C2 6.477 6.477 2 12 2s10 4.477 10 10-4.477 10-10 10S2 17.523 2 12Z" fill="#fff"/><path fill-rule="evenodd" clip-rule="evenodd" d="M10.293 8.293a1 1 0 0 1 1.414 0l3 3a1 1 0 0 1 0 1.414l-3 3a1 1 0 0 1-1.414-1.414L12.586 12l-2.293-2.293a1 1 0 0 1 0-1.414Z" fill="#fff"/></symbol><symbol fill="none" id="icon-circle-x-dark" viewBox="0 0 48 48"><title>icon-circle-x-dark</title><path d="m15 35.52 9-9 9 9L35.52 33l-9-9 9-9L33 12.48l-9 9-9-9L12.48 15l9 9-9 9L15 35.52ZM24 48c-3.28 0-6.38-.63-9.3-1.89-2.92-1.26-5.47-2.98-7.65-5.16-2.18-2.18-3.9-4.73-5.16-7.65C.63 30.38 0 27.28 0 24c0-3.32.63-6.44 1.89-9.36 1.26-2.92 2.98-5.46 5.16-7.62s4.73-3.87 7.65-5.13C17.62.63 20.72 0 24 0c3.32 0 6.44.63 9.36 1.89 2.92 1.26 5.46 2.97 7.62 5.13 2.16 2.16 3.87 4.7 5.13 7.62C47.37 17.56 48 20.68 48 24c0 3.28-.63 6.38-1.89 9.3-1.26 2.92-2.97 5.47-5.13 7.65-2.16 2.18-4.7 3.9-7.62 5.16C30.44 47.37 27.32 48 24 48Z" fill="#0A0A0A"/></symbol><symbol fill="none" id="icon-circle-x-light" viewBox="0 0 48 48"><title>icon-circle-x-light</title><path d="m15 35.52 9-9 9 9L35.52 33l-9-9 9-9L33 12.48l-9 9-9-9L12.48 15l9 9-9 9L15 35.52ZM24 48c-3.28 0-6.38-.63-9.3-1.89-2.92-1.26-5.47-2.98-7.65-5.16-2.18-2.18-3.9-4.73-5.16-7.65C.63 30.38 0 27.28 0 24c0-3.32.63-6.44 1.89-9.36 1.26-2.92 2.98-5.46 5.16-7.62s4.73-3.87 7.65-5.13C17.62.63 20.72 0 24 0c3.32 0 6.44.63 9.36 1.89 2.92 1.26 5.46 2.97 7.62 5.13 2.16 2.16 3.87 4.7 5.13 7.62C47.37 17.56 48 20.68 48 24c0 3.28-.63 6.38-1.89 9.3-1.26 2.92-2.97 5.47-5.13 7.65-2.16 2.18-4.7 3.9-7.62 5.16C30.44 47.37 27.32 48 24 48Z" fill="#fff"/></symbol><symbol id="icon-dino" viewBox="13 0 285 306"><title>icon-dino</title><g fill="none" fill-rule="evenodd"><path fill="#000" d="M256.352 91.664h-42.436V80.04h70.577V14.31h-14.294V0H155.4v14.309h-13.848v91.664H127.26v13.861h-20.994v14.309H85.271v14.308H70.977v13.862H45.069v-14.309H31.222v-13.861H16.928v-28.17H.848v86.746h13.847v14.308h14.293v13.862h13.848v14.308H57.13v13.862h13.847v56.34h30.375V289.3H87.504v-12.07h13.848v-13.862h14.294V249.06h11.613v14.308h14.294V305.4h30.375v-16.1h-14.294v-54.104h14.294V220.89h13.847v-21.016h14.294v-49.186h11.614v13.862h16.527v-30.406h-28.14V108.21h56.282z" transform="translate(13)"/><path fill="#FFF" d="M169.248 20.569h16.974V37.56h-16.974z" transform="translate(13)"/></g></symbol><symbol fill="none" id="icon-download" viewBox="0 0 16 17"><title>icon-download</title><path fill-rule="evenodd" clip-rule="evenodd" d="M7.706 11.466a.667.667 0 0 0 .688-.063.712.712 0 0 0 .08-.064l3.333-3.334a.672.672 0 0 0 0-.946.66.66 0 0 0-.947 0l-2.193 2.2V2.866c0-.373-.3-.667-.667-.667a.66.66 0 0 0-.667.667v6.39L5.14 7.06a.66.66 0 0 0-.947.001.66.66 0 0 0 0 .947l3.334 3.333a.65.65 0 0 0 .18.126Zm6.294 1.4c0 1.1-.9 2-2 2H4c-1.107 0-2-.9-2-2v-1.332a.66.66 0 0 1 .667-.667c.366 0 .666.293.666.666v1.334c0 .366.294.666.667.666h8c.367 0 .667-.3.667-.666v-1.334a.66.66 0 0 1 .666-.666c.367 0 .667.293.667.666v1.334Z" fill="#fff"/></symbol><symbol fill="none" id="icon-play" viewBox="0 0 54 59"><title>icon-play</title><path d="M52.786 27.445c1.389.758 1.389 2.752 0 3.51L3.459 57.895C2.126 58.623.5 57.66.5 56.14V2.26C.5.742 2.126-.223 3.459.505l49.327 26.94Z" fill="#fff"/></symbol></svg>